<svg width="34" height="33" viewBox="0 0 34 33" fill="none" xmlns="http://www.w3.org/2000/svg">
<path d="M32.8605 21.5811L18.978 1.46611C18.7231 1.09566 18.3804 0.792414 17.9797 0.582828C17.5791 0.373241 17.1326 0.263672 16.6792 0.263672C16.2259 0.263672 15.7794 0.373241 15.3787 0.582828C14.9781 0.792414 14.6354 1.09566 14.3805 1.46611L0.48299 21.5811C0.137446 22.0836 -0.030698 22.6847 0.00461367 23.2913C0.0399254 23.8978 0.276721 24.4759 0.678306 24.936L6.22229 31.2749C6.46563 31.557 6.76397 31.7878 7.09954 31.9536C7.4351 32.1194 7.80101 32.2166 8.17546 32.2397H8.35575C9.04494 32.24 9.70938 31.9859 10.2188 31.5272L16.2435 26.1533C16.3626 26.0459 16.518 25.9863 16.6792 25.9863C16.8405 25.9863 16.9959 26.0459 17.115 26.1533L23.1247 31.5272C23.4007 31.7764 23.7247 31.9681 24.0773 32.0907C24.43 32.2133 24.8041 32.2644 25.1772 32.2408C25.5504 32.2172 25.9148 32.1196 26.2488 31.9536C26.5829 31.7876 26.8796 31.5567 27.1212 31.2749L32.6802 24.936C33.0796 24.4742 33.3136 23.8952 33.3462 23.2888C33.3788 22.6822 33.2081 22.082 32.8605 21.5811ZM25.6789 14.9008L17.7309 21.9819V3.39596L25.6789 14.9008ZM15.6125 3.39596V21.9671L7.69468 14.886L15.6125 3.39596ZM8.31068 30.1318C8.21965 30.1278 8.1303 30.1061 8.04779 30.0679C7.96528 30.0296 7.89122 29.9757 7.8299 29.9091L2.28592 23.5554C2.19273 23.4471 2.1379 23.3115 2.12976 23.1695C2.12163 23.0275 2.16062 22.8868 2.24084 22.7686L6.47771 16.6376L15.1017 24.3422L14.8162 24.5946L8.79146 29.9685C8.72716 30.0271 8.65123 30.072 8.56845 30.1001C8.48568 30.1282 8.3979 30.139 8.31068 30.1318ZM31.0576 23.5554L25.5135 29.9091C25.3934 30.0401 25.2264 30.1199 25.0478 30.1318C24.9582 30.1393 24.8681 30.1287 24.7829 30.1006C24.6977 30.0725 24.6191 30.0275 24.5521 29.9685L24.507 29.924L18.2718 24.3422L26.8808 16.6525L31.1026 22.7686C31.1829 22.8868 31.2219 23.0275 31.2137 23.1695C31.2056 23.3115 31.1507 23.4471 31.0576 23.5554Z" fill="#513DFF"/>
</svg>
